<?xml version="1.0" standalone="no"?>
<!DOCTYPE svg PUBLIC "-//W3C//DTD SVG 20010904//EN"
 "http://www.w3.org/TR/2001/REC-SVG-20010904/DTD/svg10.dtd">
<svg version="1.0" xmlns="http://www.w3.org/2000/svg"
 width="4000.000000pt" height="4000.000000pt" viewBox="0 0 4000.000000 4000.000000"
 preserveAspectRatio="xMidYMid meet">
<metadata>
Created by potrace 1.14, written by Peter Selinger 2001-2017
</metadata>
<g transform="translate(0.000000,4000.000000) scale(0.100000,-0.100000)"
fill="#000000" stroke="none">
<path d="M2650 39985 c-888 -108 -1664 -586 -2157 -1328 -261 -392 -422 -836
-478 -1317 -13 -109 -15 -2271 -15 -17340 0 -15069 2 -17231 15 -17340 105
-893 582 -1671 1328 -2167 392 -261 836 -422 1317 -478 109 -13 2271 -15
17340 -15 18452 0 17293 -3 17550 45 1128 213 2035 1042 2345 2145 35 126 73
319 90 466 13 115 15 2042 15 17344 0 15069 -2 17231 -15 17340 -105 893 -582
1671 -1328 2167 -392 261 -836 422 -1317 478 -109 13 -2268 15 -17355 14
-13924 -1 -17250 -4 -17335 -14z m16355 -1645 c811 -31 1530 -148 2257 -369
1289 -392 2421 -1103 3152 -1979 337 -403 574 -827 691 -1234 158 -546 102
-1045 -160 -1438 -118 -178 -243 -299 -494 -482 -607 -440 -1500 -988 -2641
-1618 -2374 -1312 -3393 -1927 -4240 -2558 -878 -654 -1465 -1287 -1768 -1906
-146 -297 -205 -535 -204 -826 0 -337 99 -679 293 -1018 186 -325 406 -616
974 -1287 477 -564 729 -915 910 -1269 286 -561 352 -1074 210 -1632 -143
-560 -520 -1153 -1095 -1723 -821 -814 -2096 -1586 -3610 -2187 -388 -154
-452 -180 -710 -289 -464 -195 -1112 -421 -1620 -565 -498 -141 -1209 -313
-1937 -469 -609 -131 -1124 -207 -1643 -241 -328 -22 -862 -12 -1170 20 -146
16 -140 13 -140 65 0 34 -4 45 -15 45 -13 0 -14 4 -4 21 7 15 8 19 0 15 -11
-7 -12 13 -11 211 0 53 -4 83 -11 83 -6 0 -10 10 -9 23 4 39 0 48 -12 41 -10
-6 -10 -4 0 7 6 7 12 28 12 47 l0 34 63 -6 c312 -32 987 -51 1285 -36 690 33
1342 159 2102 405 215 70 478 168 980 363 756 294 736 286 940 403 1489 854
2246 1690 2340 2581 36 345 -38 707 -216 1058 -287 568 -813 1112 -1893 1958
-1558 1221 -1848 1455 -2416 1941 -550 471 -886 783 -1089 1010 -753 843
-1170 1801 -1267 2916 -16 181 -16 640 0 820 123 1395 758 2809 1847 4115 224
269 376 434 703 760 404 404 707 675 1131 1011 984 781 2197 1514 3459 2091
1505 687 3012 1056 4461 1091 255 6 319 6 565 -3z m6092 -8066 c262 -55 464
-234 573 -508 56 -138 81 -271 87 -457 9 -277 -32 -547 -129 -848 -102 -315
-215 -548 -591 -1221 -330 -589 -639 -1112 -2064 -3490 -605 -1009 -1217
-2035 -1360 -2280 -345 -589 -643 -1110 -637 -1110 2 0 39 28 82 63 385 315
1006 732 1626 1091 1292 749 2624 1323 3556 1531 291 65 416 45 534 -86 209
-233 221 -801 31 -1556 -96 -383 -236 -765 -410 -1118 -202 -410 -355 -621
-570 -788 -388 -300 -1006 -502 -2010 -657 -104 -16 -248 -36 -320 -45 -1184
-143 -1474 -189 -1685 -270 -106 -40 -233 -157 -343 -315 -61 -89 -102 -173
-133 -277 -24 -77 -27 -105 -27 -228 0 -120 4 -154 26 -236 80 -293 248 -551
566 -870 251 -250 510 -456 886 -704 558 -368 1132 -663 1989 -1022 39 -16 71
-35 72 -41 2 -9 1 -9 -3 -1 -4 8 -8 7 -14 -2 -4 -8 -16 -14 -26 -14 -10 0 -17
-5 -16 -12 2 -7 -3 -10 -10 -8 -14 6 -77 -30 -77 -45 0 -5 -7 -6 -17 -3 -12 5
-14 3 -8 -8 8 -12 6 -12 -8 0 -14 11 -18 11 -23 -2 -3 -9 -12 -18 -20 -21 -10
-4 -13 -1 -9 7 4 6 -3 1 -15 -13 -12 -14 -18 -19 -14 -11 5 9 3 12 -4 7 -7 -4
-12 -15 -12 -24 0 -13 -2 -14 -8 -4 -7 9 -13 8 -27 -8 -10 -11 -25 -20 -33
-20 -13 0 -12 3 4 16 10 8 12 12 4 8 -8 -4 -24 -15 -35 -25 -11 -10 -24 -19
-30 -21 -5 -2 -9 -7 -7 -13 2 -5 1 -7 -3 -3 -4 4 -18 3 -32 -3 -19 -7 -63 5
-226 66 -468 172 -841 334 -1287 556 -603 302 -1081 599 -1512 939 -768 607
-1234 1224 -1399 1856 -33 127 -59 285 -59 363 0 33 -4 51 -9 45 -38 -41 -867
-1673 -1096 -2159 -257 -546 -507 -1110 -695 -1570 -128 -312 -220 -477 -309
-558 -102 -92 -161 -49 -161 118 0 146 13 203 276 1220 805 3108 1590 5988
2174 7975 44 151 106 361 136 465 366 1247 841 2676 1060 3193 656 1544 1743
2621 3107 3077 305 101 487 122 694 79z m5813 -5764 c512 -63 902 -419 1046
-956 23 -87 27 -124 31 -300 10 -402 -36 -688 -327 -1994 -230 -1035 -354
-1883 -400 -2745 -38 -702 14 -1806 97 -2058 51 -154 156 -280 283 -341 56
-26 77 -31 145 -31 99 0 161 21 244 84 40 31 172 177 394 436 857 1001 1452
1629 1846 1946 134 108 285 179 381 179 63 0 85 -18 84 -68 -2 -64 -61 -160
-271 -437 -310 -411 -1151 -1536 -1723 -2305 -2467 -3316 -3974 -5238 -5284
-6735 -1535 -1755 -2644 -2736 -3363 -2974 -171 -57 -259 -73 -403 -74 -232
-1 -390 62 -479 193 -26 39 -34 62 -38 112 -9 112 48 202 173 273 496 286
1837 1397 3104 2574 592 550 1524 1470 1991 1966 855 906 1447 1603 1981 2330
136 185 458 660 458 676 0 5 -28 9 -62 9 -83 0 -232 23 -358 55 -255 65 -484
191 -661 365 -105 104 -154 169 -274 371 -509 852 -955 1748 -1245 2499 -343
887 -544 1728 -591 2471 -15 235 -6 745 15 938 69 607 244 1159 526 1663 361
644 996 1290 1588 1617 380 210 763 301 1092 261z m-5784 -9769 c132 -49 303
-111 381 -138 79 -26 143 -51 143 -55 0 -4 -9 -10 -20 -13 -11 -4 -18 -10 -15
-15 3 -5 1 -11 -5 -15 -5 -3 -10 2 -10 12 -1 16 -2 16 -13 3 -20 -26 -87 -62
-102 -56 -9 3 -21 -4 -30 -18 -11 -17 -22 -22 -36 -19 -14 4 -22 0 -25 -15 -4
-13 -12 -18 -25 -15 -11 3 -19 0 -19 -6 0 -7 -4 -10 -9 -7 -5 3 -11 -1 -15 -9
-3 -8 -12 -15 -20 -15 -9 0 -31 -7 -49 -16 -33 -16 -39 -15 -143 15 -60 17
-202 62 -316 98 l-207 66 147 153 c81 84 148 153 148 153 1 1 109 -39 240 -88z"/>
</g>
</svg>
